<mxfile host="app.diagrams.net" agent="Mozilla/5.0 (Windows NT 10.0; Win64; x64) AppleWebKit/537.36 (KHTML, like Gecko) Chrome/141.0.0.0 Safari/537.36" version="28.2.5">
  <diagram name="PÃ¡gina-1" id="-xVPqycS2mtjfCBDoyTj">
    <mxGraphModel dx="1694" dy="1079" grid="1" gridSize="10" guides="1" tooltips="1" connect="1" arrows="1" fold="1" page="1" pageScale="1" pageWidth="2339" pageHeight="3300" math="0" shadow="0">
      <root>
        <mxCell id="0" />
        <mxCell id="1" parent="0" />
        <mxCell id="DawzwgP2KtoN6Kn9URYS-2" value="&lt;font style=&quot;font-size: 15px;&quot;&gt;DEPARTAMENTO&lt;/font&gt;" style="whiteSpace=wrap;html=1;align=center;" vertex="1" parent="1">
          <mxGeometry x="190" y="160" width="140" height="60" as="geometry" />
        </mxCell>
        <mxCell id="DawzwgP2KtoN6Kn9URYS-5" value="&lt;font style=&quot;font-size: 15px;&quot;&gt;NomeDepartamento&lt;/font&gt;" style="ellipse;whiteSpace=wrap;html=1;align=center;" vertex="1" parent="1">
          <mxGeometry x="30" y="200" width="140" height="90" as="geometry" />
        </mxCell>
        <mxCell id="DawzwgP2KtoN6Kn9URYS-8" value="&lt;font style=&quot;font-size: 15px;&quot;&gt;CodDepartamento&lt;/font&gt;" style="ellipse;whiteSpace=wrap;html=1;align=center;fontStyle=4;" vertex="1" parent="1">
          <mxGeometry x="30" y="70" width="140" height="90" as="geometry" />
        </mxCell>
      </root>
    </mxGraphModel>
  </diagram>
</mxfile>
